<?xml version="1.0" encoding="UTF-8"?>
<svg id="Calque_1" data-name="Calque 1" xmlns="http://www.w3.org/2000/svg" width="595.3" height="396.3" version="1.1" viewBox="0 0 595.3 396.3">
  <defs>
    <style>
      .cls-1 {
        fill: none;
        stroke: #1d1d1b;
        stroke-linecap: round;
        stroke-linejoin: round;
      }
    </style>
  </defs>
  <path class="cls-1" d="M122.9,94.8l14.5-41.1,20.5,38.8,38.9-1.9-1.1,46.6,13.1,8.2-53.2-10.5-6.4,68.8-33.8-22.9-9-31.9-47.6,14.4,23.8-41-5.8-25.1,46.2-2.4h0Z"/>
  <path class="cls-1" d="M386.1,157l-11.1,43.2-53.3-49.8-28.3,15.5-20.1,37.9-26.9-51.7,26.9-17.7-37.3-43.6,63.6,6.8,17.8-43.8,11.1,42-9.2,14.3,66.7,47h0Z"/>
  <path class="cls-1" d="M478.4,104.6l20.8-50.9,13,48.8,51.2-9.2-14.7,50.5,12.7,7.6-70.1-4.8-2.9,47.1-32.5-15.4-19.9,25.5-22.6-46.7,34.3-9.6-9.2-47,39.9,4.2h0Z"/>
  <path class="cls-1" d="M217,300l7.2-19.4,18.4-2.2,11.2,19.7-21.6,9.5,27.6,16.3-48,4-.2,21.8-10.6-11.8-16.2,15.5v-21l22.7-18.7-13.7-12.6,5.1-19,18,17.9Z"/>
  <path class="cls-1" d="M351,329.8l-5.9,21-35.1,3.8-8.7-20.5-10.8,18.4-13.3-10.8,13.3-23,22.9,1-20.8-19.8,21.6-20.4,6,20.4-5,7,37.1-1.8-1.3,24.7Z"/>
  <path class="cls-1" d="M380.5,300.1l24.8-17.8,14.1,34,21.3-16-8.1,23,7,3.4,1.1,30.6h-23.1l-10.4-17.9-20.4,13-21.1-9.9,22.4-11.6-17.6-16.6,23.2.4-13.2-14.7Z"/>
</svg>