<?xml version="1.0" encoding="UTF-8"?>
<svg id="Calque_1" data-name="Calque 1" xmlns="http://www.w3.org/2000/svg" width="595.28" height="396.34" version="1.1" viewBox="0 0 595.28 396.34">
  <defs>
    <style>
      .cls-1 {
        fill: none;
        stroke: #1d1d1b;
        stroke-linecap: round;
        stroke-linejoin: round;
      }
    </style>
  </defs>
  <path class="cls-1" d="M122.92,94.79l14.46-41.08,20.5,38.85,38.87-1.91-1.12,46.55,13.11,8.21-53.21-10.46-6.39,68.76-33.75-22.93-9.04-31.85-47.61,14.43,23.79-41.04-5.83-25.14,46.22-2.39Z"/>
  <path class="cls-1" d="M386.07,156.97l-11.06,43.18-53.26-49.82-28.32,15.52-20.06,37.86-26.91-51.7,26.91-17.7-37.29-43.57,63.61,6.76,17.83-43.78,11.15,42.01-9.25,14.29,66.66,46.97Z"/>
  <path class="cls-1" d="M478.41,104.59l20.79-50.88,13,48.82,51.2-9.23-14.7,50.47,12.67,7.58-70.1-4.79-2.87,47.09-32.48-15.44-19.94,25.49-22.57-46.72,34.33-9.62-9.19-47.01,39.87,4.23Z"/>
  <g>
    <path class="cls-1" d="M91.58,293.22l2.77-11.43,12.29,10.46,12-3.49,10.01,16.99-10.01,18.2-14.98-9.11-10.02,21.98-20.51,1.08,11.74-19.82-26.14-4.3,21.54-5.31-4.4-20.48,15.71,5.21Z"/>
    <path class="cls-1" d="M246.25,315.92l-18.64,19.37-14.57-17.1-12.59-.91-10.31,25.18-19.72-7.89,13.95-17.29-16.84-12.44,21.87-4.38,5.13-30.81,25.33,17.29-16.23,14.41,42.62,14.56Z"/>
    <path class="cls-1" d="M305.53,303.53l3.64-23.66,18.73,17.25,17.82-8,20.32,15.02-16.95,14.03-20.96-2.05-10.49,20.27-8.78-9.05-17.75,23.36-16.99-18.96,15.81-9.3-5.34-20.88,20.93,1.97Z"/>
  </g>
</svg>